<svg id="icn-checkbox" xmlns="http://www.w3.org/2000/svg" xmlns:xlink="http://www.w3.org/1999/xlink" width="24" height="24" viewBox="0 0 24 24">
  <defs>
    <clipPath id="clip-path">
      <rect id="mask" width="24" height="24" transform="translate(1231 -5771)"/>
    </clipPath>
  </defs>
  <g id="icn-checkbox-2" data-name="icn-checkbox" transform="translate(-1231 5771)" clip-path="url(#clip-path)">
    <g id="icn-box-rounded" transform="translate(1231 -5771)">
      <path id="box-outer" d="M19,3H5A2.006,2.006,0,0,0,3,5V19a2.006,2.006,0,0,0,2,2H19a2.006,2.006,0,0,0,2-2V5A2.006,2.006,0,0,0,19,3Z" fill="#666"/>
      <path id="box-filling" d="M19,5V19H5V5H19" fill="#fff"/>
      <path id="check" d="M533.333,517.747l-4.04-4.04,1.414-1.414,2.626,2.626,5.96-5.96,1.414,1.415Z" transform="translate(-523 -501)" fill="#666"/>
    </g>
  </g>
</svg>
