<svg id="icn-menu-inpatient-consultation" data-name="icn-menu-inpatient-consultation" xmlns="http://www.w3.org/2000/svg" width="48" height="48" viewBox="0 0 48 48">
  <path id="filling" fill="#666666" d="M23.76,6A8.476,8.476,0,0,1,28.26,7.2,9.494,9.494,0,0,1,31.565,10.5a9.072,9.072,0,0,1,0,9,9.5,9.5,0,0,1-3.3,3.306,9.082,9.082,0,0,1-9,0A9.5,9.5,0,0,1,15.955,19.5a9.072,9.072,0,0,1,0-9A9.494,9.494,0,0,1,19.26,7.2,8.706,8.706,0,0,1,23.76,6ZM14.333,35.2a2.339,2.339,0,0,1,2.19-2.3,1.987,1.987,0,0,1,1.524.7,2.416,2.416,0,0,1,.666,1.6,2.339,2.339,0,0,1-2.19,2.3A1.987,1.987,0,0,1,15,36.8,1.909,1.909,0,0,1,14.333,35.2ZM34.14,26.4a6.7,6.7,0,0,1,3.524,2.4A6.4,6.4,0,0,1,39,32.9v5.7A3.336,3.336,0,0,1,35.759,42H12.238a3.029,3.029,0,0,1-2.286-1A3.338,3.338,0,0,1,9,38.6V32.9a7,7,0,0,1,1.333-4.1,6.7,6.7,0,0,1,3.524-2.4l1.619-.4v4.9a3.787,3.787,0,0,0-2.286,1.6,4.628,4.628,0,0,0-.857,2.8,4.418,4.418,0,0,0,1.333,3.2,4.129,4.129,0,0,0,3.143,1.3,3.874,3.874,0,0,0,2.857-1.3A4.207,4.207,0,0,0,20.9,35.6a4.8,4.8,0,0,0-.857-3,4.671,4.671,0,0,0-2.381-1.7V25.6a11.239,11.239,0,0,0,6.094,2.1,10.494,10.494,0,0,0,6.762-2.1v3.1a4.792,4.792,0,0,0-3.048,1.9,5.84,5.84,0,0,0-1.238,3.6v4.1a1.483,1.483,0,0,0,.191.6,2.066,2.066,0,0,0,.476.3l2.1.4a1.156,1.156,0,0,0,.571-.1.987.987,0,0,0,.381-.5l.1-.6a1.311,1.311,0,0,0-.1-.6.87.87,0,0,0-.571-.4l-1.048-.2v-3a3.692,3.692,0,0,1,.858-2.4,2.759,2.759,0,0,1,2.285-1,3.336,3.336,0,0,1,3.238,3.4v3l-1.048.2c-.19,0-.381.2-.571.4a.686.686,0,0,0-.1.6l.1.6a.829.829,0,0,0,.952.6l2.1-.4a.519.519,0,0,0,.476-.3,1.108,1.108,0,0,0,.191-.6V34.2a5.314,5.314,0,0,0-1.238-3.6,4.794,4.794,0,0,0-3.047-1.9V26Z"/>
</svg>
