<svg id="icn-patient-data" data-name="icn-patient-data" xmlns="http://www.w3.org/2000/svg" width="24" height="24" viewBox="0 0 24 24">
  <path id="filling" fill="#0060C8" d="M18.25,5H3.875A1.851,1.851,0,0,0,2,6.826V17.174A1.851,1.851,0,0,0,3.875,19h16.25A1.851,1.851,0,0,0,22,17.174V8.652Zm-.625,1.217V9.26H20.75v7.913a.617.617,0,0,1-.625.609H3.875a.617.617,0,0,1-.625-.609V6.826a.617.617,0,0,1,.625-.609Zm-8.75,7.436c1.458,0,4.375.781,4.375,2.2v.71H4.5v-.71c0-1.42,2.917-2.2,4.375-2.2m0-5a2.131,2.131,0,1,1-2.187,2.13A2.156,2.156,0,0,1,8.869,8.652h.006ZM19.5,16.566h-5V15.349h5Zm0-2.435h-5V12.914h5Zm0-2.435h-5V10.479h5Z"/>
</svg>
