<svg id="icn-placeholder" data-name="icn-placeholder" xmlns="http://www.w3.org/2000/svg" width="24" height="24" viewBox="0 0 24 24">
  <path id="filling" fill="#0060C8" d="M15.927,2.182H4.146A1.961,1.961,0,0,0,2.192,4.146l-.01,15.709a1.961,1.961,0,0,0,1.954,1.964H19.855a1.969,1.969,0,0,0,1.964-1.964V8.073Zm4.8,17.673a.874.874,0,0,1-.873.873H4.136a.868.868,0,0,1-.863-.872l.01-15.71a.869.869,0,0,1,.863-.873h11.33V8.525h5.252Zm-12-4.918,2.338,2.815,3.273-4.217,4.208,5.61H5.455ZM10.363,11.9a1.636,1.636,0,1,1-1.636-1.636A1.635,1.635,0,0,1,10.363,11.9h0Z"/>
</svg>
