<svg xmlns="http://www.w3.org/2000/svg" width="24" height="24" viewBox="0 0 24 24">
  <g id="icn-filter" transform="translate(-122 -102)">
    <path id="Pfad_4177" data-name="Pfad 4177" d="M0,0H24V24H0Z" transform="translate(122 102)" fill="none"/>
    <path id="Pfad_10086" data-name="Pfad 10086" d="M0,0H24V24H0Z" transform="translate(122 102)" fill="#0060C8"/>
    <path id="Pfad_4178" data-name="Pfad 4178" d="M4.213,5.61C6.243,8.2,9.994,13,9.994,13v6A1.006,1.006,0,0,0,11,20h2.01a1.006,1.006,0,0,0,1.006-1V13s3.74-4.8,5.771-7.39A1,1,0,0,0,18.993,4H5.007a1,1,0,0,0-.794,1.61Z" transform="translate(121.998 102)" fill="#fff"/>
  </g>
</svg>
